Coordinates
version=1
nRows=117
nColumns=6
inDegrees=yes

Units are S.I. units (second, meters, Newtons, ...)
If the header above contains a line with 'inDegrees', this indicates whether rotational values are in degrees (yes) or radians (no).

endheader
time	foot_tx	hip_flexion_r	knee_angle_r	ankle_angle_r	lumbar
     13.60000000	      0.17495804	     55.93502448	    -72.39830025	      5.32797840	    -20.95553566
     13.61000000	      0.17494476	     55.94970080	    -72.39740024	      5.32855909	    -20.96891222
     13.62000000	      0.17494919	     55.96538188	    -72.39103073	      5.32445070	    -20.98543535
     13.63000000	      0.17494383	     55.98206796	    -72.38596958	      5.32135585	    -21.00474960
     13.64000000	      0.17493841	     55.99969805	    -72.38037988	      5.31758408	    -21.02801094
     13.65000000	      0.17493286	     56.01779443	    -72.37317430	      5.31267563	    -21.05615153
     13.66000000	      0.17491374	     56.00985234	    -72.36658923	      5.31093875	    -21.11909061
     13.67000000	      0.17490718	     56.03750735	    -72.35958332	      5.30481831	    -21.15002877
     13.68000000	      0.17489166	     56.03439356	    -72.35086143	      5.30074318	    -21.22299535
     13.69000000	      0.17488356	     56.04623496	    -72.34082181	      5.29401717	    -21.28808869
     13.70000000	      0.17486334	     56.05899665	    -72.33276296	      5.28886591	    -21.36147129
     13.71000000	      0.17484323	     56.07121256	    -72.32281465	      5.28256884	    -21.44535655
     13.72000000	      0.17481949	     56.08484525	    -72.31296914	      5.27642689	    -21.53757663
     13.73000000	      0.17478910	     56.09914262	    -72.30264197	      5.27041019	    -21.63931454
     13.74000000	      0.17475465	     56.11541680	    -72.29159163	      5.26428193	    -21.74905114
     13.75000000	      0.17471251	     56.13331674	    -72.28063743	      5.25895086	    -21.86693075
     13.76000000	      0.17466897	     56.15530567	    -72.26928134	      5.25370545	    -21.99021898
     13.77000000	      0.17462230	     56.17986263	    -72.25672394	      5.24840738	    -22.12088729
     13.78000000	      0.17457583	     56.20863645	    -72.24289937	      5.24279158	    -22.25730920
     13.79000000	      0.17452822	     56.24235999	    -72.22830303	      5.23729977	    -22.39886707
     13.80000000	      0.17448208	     56.28214620	    -72.21300618	      5.23184855	    -22.54473013
     13.81000000	      0.17443944	     56.32792208	    -72.19594539	      5.22585844	    -22.69555988
     13.82000000	      0.17439766	     56.38142347	    -72.17858038	      5.22021704	    -22.84977733
     13.83000000	      0.17435680	     56.44237173	    -72.16134831	      5.21533450	    -23.00841997
     13.84000000	      0.17431911	     56.51110468	    -72.14298914	      5.21035762	    -23.17227546
     13.85000000	      0.17428238	     56.59014630	    -72.12490026	      5.20588617	    -23.33932126
     13.86000000	      0.17424585	     56.67901824	    -72.10656352	      5.20175574	    -23.51117617
     13.87000000	      0.17420864	     56.77953036	    -72.08825766	      5.19792810	    -23.68669454
     13.88000000	      0.17417583	     56.92307666	    -72.07074095	      5.19165291	    -23.83239063
     13.89000000	      0.17412832	     57.01758175	    -72.05221518	      5.19166365	    -24.04937341
     13.90000000	      0.17409028	     57.18066116	    -72.03513438	      5.18738921	    -24.20947666
     13.91000000	      0.17404260	     57.30497626	    -72.01680861	      5.18848957	    -24.43050180
     13.92000000	      0.17400367	     57.48785139	    -71.99984669	      5.18663143	    -24.60647592
     13.93000000	      0.17395848	     57.63900761	    -71.98105585	      5.18932011	    -24.83720508
     13.94000000	      0.17392452	     57.84279903	    -71.96397565	      5.18975449	    -25.03000386
     13.95000000	      0.17389242	     58.05318646	    -71.94557991	      5.19117553	    -25.23707337
     13.96000000	      0.17385422	     58.23153170	    -71.92598545	      5.19775330	    -25.50026990
     13.97000000	      0.17382417	     58.46824320	    -71.90791385	      5.20191154	    -25.72087191
     13.98000000	      0.17379426	     58.71269067	    -71.88840958	      5.20729784	    -25.95489243
     13.99000000	      0.17375625	     58.93203143	    -71.86734704	      5.21757413	    -26.23764266
     14.00000000	      0.17372218	     59.20126909	    -71.84700133	      5.22653417	    -26.48664224
     14.01000000	      0.17368004	     59.47733794	    -71.82422812	      5.23760587	    -26.74957173
     14.02000000	      0.17362606	     59.72238620	    -71.79928641	      5.25465498	    -27.06712773
     14.03000000	      0.17357745	     60.02204333	    -71.77504452	      5.27034073	    -27.34514630
     14.04000000	      0.17352116	     60.32858410	    -71.74739146	      5.28777313	    -27.63783971
     14.05000000	      0.17345808	     60.61026831	    -71.71806300	      5.31031146	    -27.97971270
     14.06000000	      0.17340089	     60.94901411	    -71.68857648	      5.33001074	    -28.28244378
     14.07000000	      0.17334205	     61.30558423	    -71.65766320	      5.34997537	    -28.58995300
     14.08000000	      0.17328115	     61.74294901	    -71.63047970	      5.36742166	    -28.83119742
     14.09000000	      0.17321767	     62.19626876	    -71.60240850	      5.38637875	    -29.07580806
     14.10000000	      0.17315122	     62.68035322	    -71.57381789	      5.40712464	    -29.30382424
     14.11000000	      0.17307629	     63.18630403	    -71.54569424	      5.43255981	    -29.52163385
     14.12000000	      0.17299887	     63.70614621	    -71.51585284	      5.46294830	    -29.73566212
     14.13000000	      0.17291792	     64.23194395	    -71.48389251	      5.50002685	    -29.95223376
     14.14000000	      0.17283693	     64.75926977	    -71.44813444	      5.54380421	    -30.17487327
     14.15000000	      0.17275456	     65.28509986	    -71.41000280	      5.59593076	    -30.40604310
     14.16000000	      0.17267946	     65.81558959	    -71.36635657	      5.65346645	    -30.63926200
     14.17000000	      0.17261278	     66.35193671	    -71.31714643	      5.71637148	    -30.87243561
     14.18000000	      0.17255670	     66.89526914	    -71.26158780	      5.78421032	    -31.10302693
     14.19000000	      0.17251261	     67.44645076	    -71.19883431	      5.85667847	    -31.32841490
     14.20000000	      0.17248443	     68.00734847	    -71.12849655	      5.93342250	    -31.54429037
     14.21000000	      0.17247467	     68.57549552	    -71.04952535	      6.01427142	    -31.75134338
     14.22000000	      0.17248392	     69.15494047	    -70.96123393	      6.09883682	    -31.94260017
     14.23000000	      0.17251447	     69.74332439	    -70.86288952	      6.18726280	    -32.11771061
     14.24000000	      0.17256800	     70.33956353	    -70.75428622	      6.27994840	    -32.27463156
     14.25000000	      0.17264224	     70.94259741	    -70.63489312	      6.37703869	    -32.41227683
     14.26000000	      0.17273704	     71.55230950	    -70.50441860	      6.47834690	    -32.52904926
     14.27000000	      0.17284541	     72.17247472	    -70.36318363	      6.58389321	    -32.61962287
     14.28000000	      0.17296290	     72.80422211	    -70.21148181	      6.69367148	    -32.68188779
     14.29000000	      0.17308885	     73.44747376	    -70.04857444	      6.80695844	    -32.71514580
     14.30000000	      0.17320852	     74.09816085	    -69.87861847	      6.92692440	    -32.72243524
     14.31000000	      0.17332444	     74.75503061	    -69.69968776	      7.05203007	    -32.70400360
     14.32000000	      0.17343783	     75.41391134	    -69.51199603	      7.18220460	    -32.66240201
     14.33000000	      0.17355218	     76.07245827	    -69.31412087	      7.31623243	    -32.59775414
     14.34000000	      0.17365796	     76.71956463	    -69.11070095	      7.45759031	    -32.51924056
     14.35000000	      0.17376183	     77.35397797	    -68.89860878	      7.60367506	    -32.42516398
     14.36000000	      0.17385660	     77.96866130	    -68.67977148	      7.75587293	    -32.32001068
     14.37000000	      0.17395316	     78.56689083	    -68.44864964	      7.90937897	    -32.19672961
     14.38000000	      0.17403443	     79.13689928	    -68.21229058	      8.06878472	    -32.06598368
     14.39000000	      0.17410304	     79.68098055	    -67.96721996	      8.23054149	    -31.92222958
     14.40000000	      0.17415609	     80.19189610	    -67.71645774	      8.39554374	    -31.77193727
     14.41000000	      0.17419338	     80.66847221	    -67.46224505	      8.56350508	    -31.61503479
     14.42000000	      0.17421617	     81.10626936	    -67.20706919	      8.73460342	    -31.45538114
     14.43000000	      0.17422714	     81.50272585	    -66.95310749	      8.90871830	    -31.29481843
     14.44000000	      0.17423064	     81.85939947	    -66.70166235	      9.08511776	    -31.12984090
     14.45000000	      0.17423172	     82.16837075	    -66.45331020	      9.26347662	    -30.96912361
     14.46000000	      0.17423166	     82.43374947	    -66.20801447	      9.44285727	    -30.80504917
     14.47000000	      0.17423388	     82.65116644	    -65.96381654	      9.62177274	    -30.64139123
     14.48000000	      0.17423984	     82.81880488	    -65.71865769	      9.79894832	    -30.47863572
     14.49000000	      0.17424961	     82.93720329	    -65.46994001	      9.97293423	    -30.31503587
     14.50000000	      0.17427143	     83.00251149	    -65.21368815	     10.14167547	    -30.15425927
     14.51000000	      0.17430032	     83.01476480	    -64.94888230	     10.30540647	    -29.99406485
     14.52000000	      0.17433670	     82.97717524	    -64.67196070	     10.46225671	    -29.83130700
     14.53000000	      0.17438165	     82.88943302	    -64.38035531	     10.61141727	    -29.66491921
     14.54000000	      0.17443372	     82.73342757	    -64.07098786	     10.75332564	    -29.51650205
     14.55000000	      0.17449496	     82.57868430	    -63.73973935	     10.88058232	    -29.30281376
     14.56000000	      0.17455984	     82.35438009	    -63.38405121	     10.99808648	    -29.10942844
     14.57000000	      0.17462493	     82.10016387	    -62.99949526	     11.10071834	    -28.88993747
     14.58000000	      0.17467996	     81.81576905	    -62.58537704	     11.18916324	    -28.64636077
     14.59000000	      0.17473614	     81.50177107	    -62.13623826	     11.25959119	    -28.38018380
     14.60000000	      0.17479034	     81.15785985	    -61.65060959	     11.31150840	    -28.09449853
     14.61000000	      0.17484138	     80.78416625	    -61.12765663	     11.34430537	    -27.79156679
     14.62000000	      0.17488367	     80.38116788	    -60.56861435	     11.35901664	    -27.47389268
     14.63000000	      0.17493079	     79.94802083	    -59.97098314	     11.35304494	    -27.14571614
     14.64000000	      0.17496625	     79.43249162	    -59.33793343	     11.33304049	    -26.87265317
     14.65000000	      0.17500516	     78.91499036	    -58.66992582	     11.29199373	    -26.56047523
     14.66000000	      0.17505037	     78.36496994	    -57.96537457	     11.23120563	    -26.24857287
     14.67000000	      0.17509362	     77.78379922	    -57.23303179	     11.15580536	    -25.93718920
     14.68000000	      0.17513598	     77.17183301	    -56.47193953	     11.06506609	    -25.62722006
     14.69000000	      0.17517755	     76.52712245	    -55.68861477	     10.96248909	    -25.32222623
     14.70000000	      0.17522013	     75.85254021	    -54.88433636	     10.84832843	    -25.01999721
     14.71000000	      0.17526287	     75.15127610	    -54.06338564	     10.72461040	    -24.71776995
     14.72000000	      0.17530521	     74.42333406	    -53.22748314	     10.59225277	    -24.41636111
     14.73000000	      0.17534462	     73.66831309	    -52.38051621	     10.45355960	    -24.11735184
     14.74000000	      0.17539482	     72.89105699	    -51.52357266	     10.30790630	    -23.81486012
     14.75000000	      0.17544866	     72.08910450	    -50.66206306	     10.15909303	    -23.51345889
     14.76000000	      0.17551373	     71.26457510	    -49.79884456	     10.00815866	    -23.21157128
